<?xml version="1.0" encoding="UTF-8" standalone="no"?>
<!-- Created with Inkscape (http://www.inkscape.org/) -->

<svg
   xmlns:dc="http://purl.org/dc/elements/1.1/"
   xmlns:cc="http://creativecommons.org/ns#"
   xmlns:rdf="http://www.w3.org/1999/02/22-rdf-syntax-ns#"
   xmlns:svg="http://www.w3.org/2000/svg"
   xmlns="http://www.w3.org/2000/svg"
   xmlns:sodipodi="http://sodipodi.sourceforge.net/DTD/sodipodi-0.dtd"
   xmlns:inkscape="http://www.inkscape.org/namespaces/inkscape"
   width="40"
   height="40"
   viewBox="0 0 10.583333 10.583334"
   version="1.1"
   id="svg8"
   inkscape:version="0.92.2 2405546, 2018-03-11"
   sodipodi:docname="gpslocation.svg">
  <defs
     id="defs2" />
  <sodipodi:namedview
     id="base"
     pagecolor="#ffffff"
     bordercolor="#666666"
     borderopacity="1.0"
     inkscape:pageopacity="0.0"
     inkscape:pageshadow="2"
     inkscape:zoom="1.4"
     inkscape:cx="-301.20587"
     inkscape:cy="-19.655065"
     inkscape:document-units="mm"
     inkscape:current-layer="layer1"
     showgrid="false"
     units="px"
     inkscape:window-width="1920"
     inkscape:window-height="1003"
     inkscape:window-x="0"
     inkscape:window-y="37"
     inkscape:window-maximized="1" />
  <metadata
     id="metadata5">
    <rdf:RDF>
      <cc:Work
         rdf:about="">
        <dc:format>image/svg+xml</dc:format>
        <dc:type
           rdf:resource="http://purl.org/dc/dcmitype/StillImage" />
        <dc:title />
      </cc:Work>
    </rdf:RDF>
  </metadata>
  <g
     inkscape:label="Layer 1"
     inkscape:groupmode="layer"
     id="layer1"
     transform="translate(0,-286.41665)">
    <rect
       style="opacity:1;vector-effect:none;fill:#7f7f7f;fill-opacity:1;stroke:none;stroke-width:2;stroke-linecap:round;stroke-linejoin:round;stroke-miterlimit:4;stroke-dasharray:none;stroke-dashoffset:0;stroke-opacity:1"
       id="rect826"
       width="8.1501112"
       height="8.1501112"
       x="1.216611"
       y="287.63327"
       ry="0.63783485" />
    <g
       id="g1010"
       transform="matrix(0.15040302,0,0,0.15040302,-11.140918,285.03977)">
      <path
         id="path996"
         d="M 0,0 H 48 V 48 H 0 Z"
         inkscape:connector-curvature="0"
         style="fill:none" />
    </g>
    <path
       style="fill:#67a9cf;stroke:#f7f7f7;stroke-width:0.26458333;stroke-miterlimit:4;stroke-dasharray:none;paint-order:stroke markers fill"
       id="path998"
       d="M 7.7888774,291.42899 C 7.6603854,290.26418 6.7358026,289.3396 5.5709962,289.2111 v -0.57541 H 5.0123361 v 0.57541 c -1.1648067,0.1285 -2.0893888,1.05308 -2.2178807,2.21789 H 2.2190353 v 0.55865 h 0.5754201 c 0.1284919,1.16481 1.053074,2.08939 2.2178807,2.21789 v 0.57541 h 0.5586601 v -0.57541 c 1.1648064,-0.1285 2.0893892,-1.05308 2.2178812,-2.21789 H 8.364298 v -0.55865 z m -2.4972113,2.23464 c -1.0796109,0 -1.9553103,-0.8757 -1.9553103,-1.95531 0,-1.07962 0.8756994,-1.95532 1.9553103,-1.95532 1.0796106,0 1.9553106,0.8757 1.9553106,1.95532 0,1.07961 -0.8757,1.95531 -1.9553106,1.95531 z"
       inkscape:connector-curvature="0" />
  </g>
</svg>
