<?xml version="1.0" encoding="UTF-8" standalone="no"?>
<!-- Generated by IcoMoon.io -->

<svg
   xmlns:dc="http://purl.org/dc/elements/1.1/"
   xmlns:cc="http://creativecommons.org/ns#"
   xmlns:rdf="http://www.w3.org/1999/02/22-rdf-syntax-ns#"
   xmlns:svg="http://www.w3.org/2000/svg"
   xmlns="http://www.w3.org/2000/svg"
   xmlns:sodipodi="http://sodipodi.sourceforge.net/DTD/sodipodi-0.dtd"
   xmlns:inkscape="http://www.inkscape.org/namespaces/inkscape"
   version="1.1"
   width="64"
   height="64"
   viewBox="0 0 64 64"
   id="svg6"
   sodipodi:docname="edit.svg"
   inkscape:version="0.92.2 2405546, 2018-03-11">
  <metadata
     id="metadata12">
    <rdf:RDF>
      <cc:Work
         rdf:about="">
        <dc:format>image/svg+xml</dc:format>
        <dc:type
           rdf:resource="http://purl.org/dc/dcmitype/StillImage" />
        <dc:title>folder-plus</dc:title>
      </cc:Work>
    </rdf:RDF>
  </metadata>
  <defs
     id="defs10" />
  <sodipodi:namedview
     pagecolor="#ffffff"
     bordercolor="#666666"
     borderopacity="1"
     objecttolerance="10"
     gridtolerance="10"
     guidetolerance="10"
     inkscape:pageopacity="0"
     inkscape:pageshadow="2"
     inkscape:window-width="1920"
     inkscape:window-height="1003"
     id="namedview8"
     showgrid="false"
     inkscape:zoom="1.3037281"
     inkscape:cx="96.57689"
     inkscape:cy="89.567899"
     inkscape:window-x="0"
     inkscape:window-y="37"
     inkscape:window-maximized="1"
     inkscape:current-layer="g874"
     showguides="true"
     inkscape:guide-bbox="true" />
  <title
     id="title2">folder-plus</title>
  <g
     id="g834"
     transform="matrix(1.0376512,0,0,1.0376512,-1.7764619,-3.0893462)">
    <path
       inkscape:connector-curvature="0"
       d="m 34.899914,49.474349 v 9.635828 L 44.70353,49.306561 Z M 9.779647,7.8149728 h 45.542471 c 4.036884,0 7.286795,3.2499112 7.286795,7.2867952 v 27.133723 c 0,4.036884 -3.249911,7.286795 -7.286795,7.286795 H 9.779647 c -4.036885,0 -7.286796,-3.249911 -7.286796,-7.286795 V 15.101768 c 0,-4.036884 3.249911,-7.2867952 7.286796,-7.2867952 z"
       style="fill:#67a9cf;stroke:#67a9cf;stroke-width:1px;stroke-linecap:butt;stroke-linejoin:miter;stroke-opacity:1"
       id="path880" />
    <path
       inkscape:connector-curvature="0"
       id="path886"
       d="M 8.8208575,17.594619 H 56.7603"
       style="fill:#d6d6d6;stroke:#4e4e4e;stroke-width:3;stroke-linecap:butt;stroke-linejoin:miter;stroke-miterlimit:4;stroke-dasharray:none;stroke-opacity:1" />
    <path
       style="fill:#d6d6d6;stroke:#4e4e4e;stroke-width:3;stroke-linecap:butt;stroke-linejoin:miter;stroke-miterlimit:4;stroke-dasharray:none;stroke-opacity:1"
       d="M 8.8208575,26.671155 H 56.7603"
       id="path888"
       inkscape:connector-curvature="0" />
    <path
       inkscape:connector-curvature="0"
       id="path890"
       d="M 8.8208575,35.747688 H 56.7603"
       style="fill:#d6d6d6;stroke:#4e4e4e;stroke-width:3;stroke-linecap:butt;stroke-linejoin:miter;stroke-miterlimit:4;stroke-dasharray:none;stroke-opacity:1" />
    <g
       transform="matrix(0.59904492,0,0,0.59904492,16.347701,8.4342701)"
       id="g874">
      <path
         inkscape:connector-curvature="0"
         style="fill:#ef6262;stroke-width:1.10014963"
         d="m 54.059579,-1.73567 c 6.076128,0 11.001498,4.9253702 11.001498,11.0014997 -10e-7,2.4764393 -0.818511,4.7625493 -2.200299,6.6009003 L 58.460177,20.267329 43.058082,4.8652286 47.458682,0.46462903 C 49.297032,-0.91715877 51.583143,-1.73567 54.059579,-1.73567 Z"
         id="path826" />
      <path
         inkscape:connector-curvature="0"
         style="fill:#ef662f;stroke-width:1.10014963"
         d="M 39.757633,8.1656772 -0.94790607,48.871221 -5.3485049,68.673916 14.45419,64.273317 55.159729,23.567778 Z m 0.30512,11.3066208 3.792508,3.792507 L 13.051068,54.068999 9.2585606,50.27649 Z"
         id="path824" />
      <path
         inkscape:connector-curvature="0"
         id="path898"
         d="M 11.318263,52.103726 9.4728118,50.252535 24.818586,34.90748 40.164359,19.562424 l 1.84545,1.85119 1.845452,1.851191 L 28.509486,38.60986 13.163712,53.954915 Z"
         style="opacity:1;vector-effect:none;fill:#efefef;fill-opacity:1;stroke:#ef8a62;stroke-width:0.51581001;stroke-linecap:round;stroke-linejoin:round;stroke-miterlimit:4;stroke-dasharray:none;stroke-dashoffset:1.60251999;stroke-opacity:1;paint-order:stroke markers fill" />
      <rect
         transform="rotate(-45)"
         ry="0"
         rx="0"
         y="33.886898"
         x="22.338888"
         height="21.781855"
         width="4.6675339"
         id="rect900"
         style="opacity:1;vector-effect:none;fill:#efefef;fill-opacity:1;stroke:none;stroke-width:4.5679965;stroke-linecap:round;stroke-linejoin:round;stroke-miterlimit:4;stroke-dasharray:none;stroke-dashoffset:1.60251999;stroke-opacity:1;paint-order:stroke markers fill" />
    </g>
  </g>
</svg>
