<?xml version="1.0" encoding="UTF-8" standalone="no"?>
<!-- Generated by IcoMoon.io -->

<svg
   xmlns:dc="http://purl.org/dc/elements/1.1/"
   xmlns:cc="http://creativecommons.org/ns#"
   xmlns:rdf="http://www.w3.org/1999/02/22-rdf-syntax-ns#"
   xmlns:svg="http://www.w3.org/2000/svg"
   xmlns="http://www.w3.org/2000/svg"
   xmlns:sodipodi="http://sodipodi.sourceforge.net/DTD/sodipodi-0.dtd"
   xmlns:inkscape="http://www.inkscape.org/namespaces/inkscape"
   version="1.1"
   width="64"
   height="64"
   viewBox="0 0 64 64"
   id="svg6"
   sodipodi:docname="exportFile.svg"
   inkscape:version="0.92.2 2405546, 2018-03-11">
  <metadata
     id="metadata12">
    <rdf:RDF>
      <cc:Work
         rdf:about="">
        <dc:format>image/svg+xml</dc:format>
        <dc:type
           rdf:resource="http://purl.org/dc/dcmitype/StillImage" />
        <dc:title>list2</dc:title>
      </cc:Work>
    </rdf:RDF>
  </metadata>
  <defs
     id="defs10" />
  <sodipodi:namedview
     pagecolor="#ffffff"
     bordercolor="#666666"
     borderopacity="1"
     objecttolerance="10"
     gridtolerance="10"
     guidetolerance="10"
     inkscape:pageopacity="0"
     inkscape:pageshadow="2"
     inkscape:window-width="1920"
     inkscape:window-height="1003"
     id="namedview8"
     showgrid="false"
     inkscape:zoom="2.6074563"
     inkscape:cx="-157.64237"
     inkscape:cy="1.5203252"
     inkscape:window-x="0"
     inkscape:window-y="37"
     inkscape:window-maximized="1"
     inkscape:current-layer="svg6"
     showguides="true"
     inkscape:guide-bbox="true">
    <sodipodi:guide
       position="-57.767029,31.064759"
       orientation="0,1"
       id="guide989"
       inkscape:locked="false" />
    <sodipodi:guide
       position="-60.439653,34.660217"
       orientation="1,0"
       id="guide991"
       inkscape:locked="false" />
    <sodipodi:guide
       position="-58.847458,57.423729"
       orientation="1,0"
       id="guide993"
       inkscape:locked="false" />
    <sodipodi:guide
       position="-61.694915,64.949153"
       orientation="0,1"
       id="guide995"
       inkscape:locked="false" />
  </sodipodi:namedview>
  <title
     id="title2">list2</title>
  <g
     id="g1091"
     transform="matrix(1.7758201,0,0,1.7758201,162.71245,1.9505819)">
    <g
       transform="translate(-2.8373375,1.6259496)"
       id="g896">
      <path
         style="opacity:1;vector-effect:none;fill:#ffffff;fill-opacity:1;stroke:#efefef;stroke-width:0.04895511;stroke-linecap:round;stroke-linejoin:round;stroke-miterlimit:4;stroke-dasharray:none;stroke-dashoffset:1.60251999;stroke-opacity:1;paint-order:markers stroke fill"
         d="m -84.553822,10.471901 c -0.04573,-5.9841508 -0.09463,-11.17216853 -0.108676,-11.5289289 l -0.02553,-0.6486552 h 4.840211 c 4.626946,0 4.843781,0.00394 4.921231,0.089526 l 7.032645,7.3026945 v 7.8328176 7.832817 h -8.288369 -8.288368 z"
         id="path890"
         inkscape:connector-curvature="0"
         sodipodi:nodetypes="sccsccccccs" />
      <path
         style="color:#000000;font-style:normal;font-variant:normal;font-weight:normal;font-stretch:normal;font-size:medium;line-height:normal;font-family:sans-serif;font-variant-ligatures:normal;font-variant-position:normal;font-variant-caps:normal;font-variant-numeric:normal;font-variant-alternates:normal;font-feature-settings:normal;text-indent:0;text-align:start;text-decoration:none;text-decoration-line:none;text-decoration-style:solid;text-decoration-color:#000000;letter-spacing:normal;word-spacing:normal;text-transform:none;writing-mode:lr-tb;direction:ltr;text-orientation:mixed;dominant-baseline:auto;baseline-shift:baseline;text-anchor:start;white-space:normal;shape-padding:0;clip-rule:nonzero;display:inline;overflow:visible;visibility:visible;opacity:1;isolation:auto;mix-blend-mode:normal;color-interpolation:sRGB;color-interpolation-filters:linearRGB;solid-color:#000000;solid-opacity:1;vector-effect:none;fill:#333333;fill-opacity:1;fill-rule:nonzero;stroke:none;stroke-width:1px;stroke-linecap:butt;stroke-linejoin:round;stroke-miterlimit:4;stroke-dasharray:none;stroke-dashoffset:0;stroke-opacity:1;color-rendering:auto;image-rendering:auto;shape-rendering:auto;text-rendering:auto;enable-background:accumulate"
         d="m -85.01781,-2.4651748 a 0.50005,0.50005 0 0 0 -0.5,0.5039063 l 0.205078,23.5917965 a 0.50005,0.50005 0 0 0 0.5,0.496093 h 17.253907 a 0.50005,0.50005 0 0 0 0.5,-0.5 V 5.2535747 a 0.50005,0.50005 0 0 0 -0.146485,-0.353515 l -7.220703,-7.2187501 a 0.50005,0.50005 0 0 0 -0.353515,-0.1464844 z m 0.503906,1 h 9.527344 l 0.113282,0.1132813 v 6.6054682 a 0.50005,0.50005 0 0 0 0.5,0.5 h 6.314453 V 21.126621 h -16.259766 z m 10.640626,1.11328149 5.107421,5.10546801 h -5.107421 z"
         id="path883"
         inkscape:connector-curvature="0" />
    </g>
    <g
       id="g913"
       transform="translate(7.9969766,13.131416)">
      <path
         sodipodi:nodetypes="sccsccccccs"
         inkscape:connector-curvature="0"
         id="path909"
         d="m -85.088294,9.7913374 c -0.04801,-6.2821173 -0.09934,-11.7284595 -0.114087,-12.1029839 l -0.0268,-0.6809534 h 5.081217 c 4.857334,0 5.084965,0.00414 5.166272,0.093984 l 7.382818,7.6663142 v 8.2228327 8.222833 h -8.701068 -8.701067 z"
         style="opacity:1;vector-effect:none;fill:#ffffff;fill-opacity:1;stroke:#efefef;stroke-width:0.05139271;stroke-linecap:round;stroke-linejoin:round;stroke-miterlimit:4;stroke-dasharray:none;stroke-dashoffset:1.60251999;stroke-opacity:1;paint-order:markers stroke fill" />
      <path
         inkscape:connector-curvature="0"
         id="path911"
         d="m -84.81442,-2.9736494 a 0.50005,0.50005 0 0 0 -0.5,0.5039063 l 0.205078,23.5917961 a 0.50005,0.50005 0 0 0 0.5,0.496093 h 17.253907 a 0.50005,0.50005 0 0 0 0.5,-0.5 V 4.7451001 a 0.50005,0.50005 0 0 0 -0.146485,-0.353515 l -7.220703,-7.2187501 a 0.50005,0.50005 0 0 0 -0.353515,-0.1464844 z m 0.503906,1 h 9.527344 l 0.113282,0.1132813 v 6.6054682 a 0.50005,0.50005 0 0 0 0.5,0.5 h 6.314453 V 20.618146 h -16.259766 z m 10.640626,1.11328151 5.107421,5.10546799 h -5.107421 z"
         style="color:#000000;font-style:normal;font-variant:normal;font-weight:normal;font-stretch:normal;font-size:medium;line-height:normal;font-family:sans-serif;font-variant-ligatures:normal;font-variant-position:normal;font-variant-caps:normal;font-variant-numeric:normal;font-variant-alternates:normal;font-feature-settings:normal;text-indent:0;text-align:start;text-decoration:none;text-decoration-line:none;text-decoration-style:solid;text-decoration-color:#000000;letter-spacing:normal;word-spacing:normal;text-transform:none;writing-mode:lr-tb;direction:ltr;text-orientation:mixed;dominant-baseline:auto;baseline-shift:baseline;text-anchor:start;white-space:normal;shape-padding:0;clip-rule:nonzero;display:inline;overflow:visible;visibility:visible;opacity:1;isolation:auto;mix-blend-mode:normal;color-interpolation:sRGB;color-interpolation-filters:linearRGB;solid-color:#000000;solid-opacity:1;vector-effect:none;fill:#333333;fill-opacity:1;fill-rule:nonzero;stroke:none;stroke-width:1;stroke-linecap:butt;stroke-linejoin:round;stroke-miterlimit:4;stroke-dasharray:none;stroke-dashoffset:0;stroke-opacity:1;color-rendering:auto;image-rendering:auto;shape-rendering:auto;text-rendering:auto;enable-background:accumulate" />
      <g
         style="fill:#ef2f2f"
         transform="matrix(0.04928205,0,0,0.04928205,-83.707677,4.745652)"
         id="g971">
        <g
           style="fill:#ef2f2f"
           id="XMLID_238_">
	<path
   style="fill:#ef2f2f"
   inkscape:connector-curvature="0"
   id="XMLID_239_"
   d="m 253.319,178.119 c -19.338,0 -43.539,3.373 -51.456,4.56 -32.769,-34.22 -42.092,-53.671 -44.189,-58.857 2.842,-7.302 12.73,-35.041 14.135,-70.667 C 172.502,35.318 168.734,21.99 160.607,13.541 152.494,5.106 142.674,4.45 139.858,4.45 c -9.874,0 -26.438,4.993 -26.438,38.429 0,29.011 13.526,59.795 17.265,67.749 C 110.986,167.986 89.837,207.251 85.346,215.326 6.19,245.129 0,273.945 0,282.112 c 0,14.676 10.452,23.438 27.959,23.438 42.535,0 81.351,-71.412 87.769,-83.812 30.21,-12.037 70.644,-19.493 80.923,-21.272 29.484,28.086 63.583,35.58 77.743,35.58 10.654,0 35.605,0 35.605,-25.653 10e-4,-23.822 -30.532,-32.274 -56.68,-32.274 z m -2.05,16.841 c 22.975,0 29.047,7.598 29.047,11.615 0,2.521 -0.957,10.746 -13.272,10.746 -11.043,0 -30.109,-6.382 -48.868,-20.23 7.823,-1.028 19.399,-2.131 33.093,-2.131 z M 138.652,20.774 c 2.095,0 3.474,0.673 4.611,2.25 6.608,9.169 1.28,39.129 -5.205,62.574 -6.26,-20.103 -10.958,-50.949 -4.348,-61.801 1.292,-2.118 2.769,-3.023 4.942,-3.023 z m -11.158,179.453 c 8.318,-16.804 17.641,-41.294 22.719,-55.145 10.162,17.009 23.83,32.801 31.735,41.363 -24.613,5.189 -43.235,10.373 -54.454,13.782 z M 16.523,284.354 c -0.548,-0.65 -0.629,-2.02 -0.216,-3.665 0.866,-3.447 7.484,-20.534 55.351,-41.946 -6.854,10.796 -17.569,26.222 -29.34,37.746 -8.286,7.756 -14.738,11.689 -19.177,11.689 -1.588,0 -3.776,-0.433 -6.618,-3.824 z" />

</g>
        <g
           style="fill:#ef2f2f"
           id="g917">
</g>
        <g
           style="fill:#ef2f2f"
           id="g919">
</g>
        <g
           style="fill:#ef2f2f"
           id="g921">
</g>
        <g
           style="fill:#ef2f2f"
           id="g923">
</g>
        <g
           style="fill:#ef2f2f"
           id="g925">
</g>
        <g
           style="fill:#ef2f2f"
           id="g927">
</g>
        <g
           style="fill:#ef2f2f"
           id="g929">
</g>
        <g
           style="fill:#ef2f2f"
           id="g931">
</g>
        <g
           style="fill:#ef2f2f"
           id="g933">
</g>
        <g
           style="fill:#ef2f2f"
           id="g935">
</g>
        <g
           style="fill:#ef2f2f"
           id="g937">
</g>
        <g
           style="fill:#ef2f2f"
           id="g939">
</g>
        <g
           style="fill:#ef2f2f"
           id="g941">
</g>
        <g
           style="fill:#ef2f2f"
           id="g943">
</g>
        <g
           style="fill:#ef2f2f"
           id="g945">
</g>
      </g>
      <g
         transform="translate(2.5048359,0.47939453)"
         id="g987">
        <text
           id="text1026"
           y="0.64658225"
           x="-87.297226"
           style="font-style:normal;font-variant:normal;font-weight:normal;font-stretch:normal;font-size:1.55523837px;line-height:1.25;font-family:'Adobe Garamond Pro';-inkscape-font-specification:'Adobe Garamond Pro';letter-spacing:0px;word-spacing:0px;fill:#000000;fill-opacity:1;stroke:none;stroke-width:0.11664288"
           xml:space="preserve"><tspan
             style="font-style:normal;font-variant:normal;font-weight:bold;font-stretch:normal;font-family:Arial;-inkscape-font-specification:'Arial Bold';fill:#ffffff;stroke-width:0.11664288"
             y="0.64658225"
             x="-87.297226"
             id="tspan1024"
             sodipodi:role="line">ADOBE <tspan
   dy="-0.74000001"
   id="tspan1022"
   style="font-size:0.5333333px">TM</tspan></tspan></text>
        <rect
           style="opacity:1;vector-effect:none;fill:#ef2f2f;fill-opacity:1;stroke:none;stroke-width:1.81429505;stroke-linecap:round;stroke-linejoin:round;stroke-miterlimit:4;stroke-dasharray:none;stroke-dashoffset:1.60251999;stroke-opacity:1;paint-order:markers stroke fill"
           id="rect975"
           width="7.5744324"
           height="1.6299411"
           x="-78.5159"
           y="17.694489" />
        <text
           xml:space="preserve"
           style="font-style:normal;font-variant:normal;font-weight:normal;font-stretch:normal;font-size:1.55523837px;line-height:1.25;font-family:'Adobe Garamond Pro';-inkscape-font-specification:'Adobe Garamond Pro';letter-spacing:0px;word-spacing:0px;fill:#000000;fill-opacity:1;stroke:none;stroke-width:0.11664288"
           x="-78.140793"
           y="19.055328"
           id="text979"><tspan
             sodipodi:role="line"
             id="tspan977"
             x="-78.140793"
             y="19.055328"
             style="font-style:normal;font-variant:normal;font-weight:bold;font-stretch:normal;font-family:Arial;-inkscape-font-specification:'Arial Bold';fill:#ffffff;stroke-width:0.11664288">ADOBE <tspan
   style="font-size:0.5333333px"
   id="tspan981"
   dy="-0.74000001">TM</tspan></tspan></text>
      </g>
    </g>
    <path
       sodipodi:nodetypes="cscsscsscscccsscsccscccsccc"
       style="fill:#29cf5c;stroke:#29cf5c;stroke-width:0.60631549"
       inkscape:connector-curvature="0"
       d="m -59.47557,7.6507504 -3.043067,3.0585966 c -0.117741,0.118343 -0.263074,0.177594 -0.435995,0.177747 -0.172634,4.63e-4 -0.318124,-0.05822 -0.436467,-0.175955 l -3.058598,-3.0430662 c -0.118344,-0.1177419 -0.177591,-0.2627883 -0.177744,-0.4351384 -4.64e-4,-0.1726339 0.05821,-0.3181234 0.175954,-0.4364666 0.117744,-0.118344 0.262931,-0.1777358 0.435566,-0.1781754 l 1.879546,-0.00475 c -0.05275,-1.2937757 -0.536726,-2.3959556 -1.451953,-3.3065374 -0.609772,-0.6066747 -1.325817,-1.0245799 -2.148135,-1.2537158 -0.822606,-0.2299927 -1.651236,-0.2438894 -2.485889,-0.04169 -0.127121,0.027477 -0.512606,0.1736547 -1.156458,0.4385344 -0.141023,0.068955 -0.261676,0.053543 -0.361967,-0.046239 l -1.358232,-1.3513758 c -0.05931,-0.0590137 -0.08922,-0.13153611 -0.08973,-0.217567 3.14e-4,-0.0863174 0.02989,-0.15899271 0.08862,-0.21802109 l 0.04832,-0.0485697 c 1.508777,-0.92618396 3.106697,-1.30353335 4.793763,-1.13204774 1.687632,0.1697693 3.157266,0.87729367 4.408901,2.12257313 0.664788,0.6614124 1.185082,1.4308036 1.560882,2.3081743 0.377517,0.8773666 0.581054,1.7883307 0.610612,2.7328939 l 1.764232,0.00195 c 0.171491,-4.38e-4 0.316552,0.058362 0.435183,0.1763866 0.118343,0.1177427 0.17802,0.2626443 0.179029,0.4347066 1.65e-4,0.172921 -0.05864,0.3185535 -0.176382,0.4368968 z"
       id="path898" />
    <rect
       y="11.846119"
       x="-79.621933"
       height="3.6943564"
       width="12.065114"
       id="rect997"
       style="opacity:1;vector-effect:none;fill:#ef2f2f;fill-opacity:1;stroke:none;stroke-width:3.74279189;stroke-linecap:round;stroke-linejoin:round;stroke-miterlimit:4;stroke-dasharray:none;stroke-dashoffset:1.60251999;stroke-opacity:1;paint-order:markers stroke fill" />
    <text
       id="text1032"
       y="14.923393"
       x="-75.484238"
       style="font-style:normal;font-variant:normal;font-weight:normal;font-stretch:normal;font-size:3.57592225px;line-height:1.25;font-family:'Adobe Garamond Pro';-inkscape-font-specification:'Adobe Garamond Pro';letter-spacing:0px;word-spacing:0px;fill:#000000;fill-opacity:1;stroke:none;stroke-width:0.26819417"
       xml:space="preserve"><tspan
         style="font-style:normal;font-variant:normal;font-weight:bold;font-stretch:normal;font-family:Arial;-inkscape-font-specification:'Arial Bold';fill:#ffffff;stroke-width:0.26819417"
         y="14.923393"
         x="-75.484238"
         id="tspan1030"
         sodipodi:role="line">PDF</tspan></text>
  </g>
</svg>
