<?xml version="1.0" encoding="UTF-8" standalone="no"?>
<!-- Generated by IcoMoon.io -->

<svg
   xmlns:dc="http://purl.org/dc/elements/1.1/"
   xmlns:cc="http://creativecommons.org/ns#"
   xmlns:rdf="http://www.w3.org/1999/02/22-rdf-syntax-ns#"
   xmlns:svg="http://www.w3.org/2000/svg"
   xmlns="http://www.w3.org/2000/svg"
   xmlns:sodipodi="http://sodipodi.sourceforge.net/DTD/sodipodi-0.dtd"
   xmlns:inkscape="http://www.inkscape.org/namespaces/inkscape"
   version="1.1"
   width="64"
   height="64"
   viewBox="0 0 64 64"
   id="svg6"
   sodipodi:docname="geojson.svg"
   inkscape:version="0.92.2 2405546, 2018-03-11">
  <metadata
     id="metadata12">
    <rdf:RDF>
      <cc:Work
         rdf:about="">
        <dc:format>image/svg+xml</dc:format>
        <dc:type
           rdf:resource="http://purl.org/dc/dcmitype/StillImage" />
        <dc:title>folder-plus</dc:title>
      </cc:Work>
    </rdf:RDF>
  </metadata>
  <defs
     id="defs10" />
  <sodipodi:namedview
     pagecolor="#ffffff"
     bordercolor="#666666"
     borderopacity="1"
     objecttolerance="10"
     gridtolerance="10"
     guidetolerance="10"
     inkscape:pageopacity="0"
     inkscape:pageshadow="2"
     inkscape:window-width="1920"
     inkscape:window-height="1003"
     id="namedview8"
     showgrid="false"
     inkscape:zoom="4"
     inkscape:cx="3.7310657"
     inkscape:cy="44.265227"
     inkscape:window-x="0"
     inkscape:window-y="37"
     inkscape:window-maximized="1"
     inkscape:current-layer="g952"
     inkscape:snap-global="true"
     inkscape:snap-midpoints="false"
     inkscape:snap-smooth-nodes="true"
     inkscape:snap-intersection-paths="false"
     inkscape:object-paths="false"
     inkscape:snap-to-guides="true"
     showguides="true"
     inkscape:guide-bbox="true">
    <sodipodi:guide
       position="46.5,53.75"
       orientation="0,1"
       id="guide1035"
       inkscape:locked="false" />
    <sodipodi:guide
       position="55.75,10.5"
       orientation="0,1"
       id="guide1037"
       inkscape:locked="false" />
  </sodipodi:namedview>
  <title
     id="title2">folder-plus</title>
  <g
     id="g925"
     transform="matrix(0.50707316,0,0,0.50707316,14.423089,8.0242636)">
    <g
       id="g945">
      <g
         id="g952"
         transform="translate(0,-0.81921693)">
        <g
           id="g1029"
           transform="matrix(5.6309192,0,0,5.6309192,-7.5684321,5.869921)"
           style="fill:#ef662f">
          <g
             id="g973"
             style="fill:#ef662f">
	<path
   id="path971"
   d="M 14.982,7 C 14.736,3.256 11.744,0.263 8,0.017 V 0 H 7.5 7 V 0.017 C 3.256,0.263 0.263,3.256 0.017,7 H 0 V 7.5 8 H 0.017 C 0.263,11.744 3.256,14.736 7,14.982 V 15 H 7.5 8 V 14.982 C 11.744,14.736 14.736,11.744 14.982,8 H 15 V 7.5 7 Z M 4.695,1.635 C 4.212,2.277 3.811,3.082 3.519,4 H 2.021 C 2.673,2.983 3.599,2.16 4.695,1.635 Z M 1.498,5 H 3.256 C 3.122,5.632 3.037,6.303 3.01,7 H 1.019 C 1.072,6.296 1.238,5.623 1.498,5 Z M 1.019,8 H 3.01 c 0.027,0.697 0.112,1.368 0.246,2 H 1.498 C 1.238,9.377 1.072,8.704 1.019,8 Z m 1.002,3 H 3.518 C 3.81,11.918 4.211,12.723 4.695,13.365 3.599,12.84 2.673,12.018 2.021,11 Z M 7,13.936 C 5.972,13.661 5.087,12.557 4.55,11 H 7 Z M 7,10 H 4.269 C 4.128,9.377 4.039,8.704 4.01,8 H 7 Z M 7,7 H 4.01 C 4.039,6.296 4.128,5.623 4.269,5 H 7 Z M 7,4 H 4.55 C 5.087,2.443 5.972,1.339 7,1.065 Z m 5.979,0 H 11.483 C 11.19,3.082 10.79,2.277 10.305,1.635 11.4,2.16 12.327,2.983 12.979,4 Z M 8,1.065 C 9.027,1.339 9.913,2.443 10.45,4 H 8 Z M 8,5 h 2.73 c 0.142,0.623 0.229,1.296 0.26,2 H 8 Z m 0,3 h 2.99 c -0.029,0.704 -0.118,1.377 -0.26,2 H 8 Z m 0,5.936 V 11 h 2.45 C 9.913,12.557 9.027,13.661 8,13.936 Z m 2.305,-0.571 C 10.788,12.722 11.19,11.918 11.483,11 h 1.496 c -0.652,1.018 -1.579,1.84 -2.674,2.365 z M 13.502,10 H 11.744 C 11.878,9.368 11.963,8.697 11.99,8 h 1.99 c -0.052,0.704 -0.218,1.377 -0.478,2 z M 11.99,7 C 11.963,6.303 11.878,5.632 11.744,5 h 1.758 c 0.26,0.623 0.426,1.296 0.479,2 z"
   style="fill:#ef662f"
   inkscape:connector-curvature="0" />

</g>
          <g
             id="g975"
             style="fill:#ef662f">
</g>
          <g
             id="g977"
             style="fill:#ef662f">
</g>
          <g
             id="g979"
             style="fill:#ef662f">
</g>
          <g
             id="g981"
             style="fill:#ef662f">
</g>
          <g
             id="g983"
             style="fill:#ef662f">
</g>
          <g
             id="g985"
             style="fill:#ef662f">
</g>
          <g
             id="g987"
             style="fill:#ef662f">
</g>
          <g
             id="g989"
             style="fill:#ef662f">
</g>
          <g
             id="g991"
             style="fill:#ef662f">
</g>
          <g
             id="g993"
             style="fill:#ef662f">
</g>
          <g
             id="g995"
             style="fill:#ef662f">
</g>
          <g
             id="g997"
             style="fill:#ef662f">
</g>
          <g
             id="g999"
             style="fill:#ef662f">
</g>
          <g
             id="g1001"
             style="fill:#ef662f">
</g>
          <g
             id="g1003"
             style="fill:#ef662f">
</g>
        </g>
        <text
           xml:space="preserve"
           style="font-style:normal;font-variant:normal;font-weight:normal;font-stretch:normal;font-size:93.85929871px;line-height:1.25;font-family:Roboto;-inkscape-font-specification:Roboto;letter-spacing:0px;word-spacing:0px;fill:#4e4e4e;fill-opacity:1;stroke:none;stroke-width:2.34648252;"
           x="-34.258324"
           y="56.503014"
           id="text1033"
           transform="scale(0.84045034,1.1898383)"><tspan
             sodipodi:role="line"
             id="tspan1031"
             x="-34.258324"
             y="56.503014"
             style="font-style:normal;font-variant:normal;font-weight:normal;font-stretch:normal;font-family:Arial;-inkscape-font-specification:Arial;stroke-width:2.34648252;fill:#4e4e4e;">{</tspan></text>
        <text
           transform="scale(-0.84045034,-1.1898383)"
           id="text1041"
           y="-23.922314"
           x="-117.36154"
           style="font-style:normal;font-variant:normal;font-weight:normal;font-stretch:normal;font-size:93.85929871px;line-height:1.25;font-family:Roboto;-inkscape-font-specification:Roboto;letter-spacing:0px;word-spacing:0px;fill:#4e4e4e;fill-opacity:1;stroke:none;stroke-width:2.34648252;"
           xml:space="preserve"><tspan
             style="font-style:normal;font-variant:normal;font-weight:normal;font-stretch:normal;font-family:Arial;-inkscape-font-specification:Arial;stroke-width:2.34648252;fill:#4e4e4e;"
             y="-23.922314"
             x="-117.36154"
             id="tspan1039"
             sodipodi:role="line">{</tspan></text>
      </g>
    </g>
  </g>
</svg>
