<svg xmlns="http://www.w3.org/2000/svg" viewBox="-298 390 14 14"><path d="M-284.442 391.66l.078.072v6.784l-.09.088-.088.09h-3.612v-.603h3.183v-5.934h-7.475v2.514h-.602v-1.465c0-1.457 0-1.465.073-1.542l.073-.077h8.38zm-2.437 1.962c0 .07-.012.367-.03.662-.018.295-.05.93-.07 1.408-.023.48-.053.883-.065.897-.012.013-.27-.238-.574-.56-.302-.32-.56-.584-.57-.586-.013-.002-.81.752-1.777 1.676-.966.923-1.775 1.686-1.8 1.696-.042.018-.655-.6-.666-.673-.01-.02.57-.584 1.273-1.253l1.783-1.696.502-.48-.553-.576c-.304-.317-.557-.59-.563-.61-.012-.02.548-.032 1.55-.032h1.56v.126zm-3.15 1.988l-.318.3h-6.689l.01 2.96.012 2.957 3.746.01 3.748.008V396.892l.28-.256c.156-.14.29-.255.303-.255.013 0 .02 1.312.02 2.915v2.914l-.086.102-.087.103h-8.37l-.087-.103-.087-.103v-6.696l.087-.103.087-.102 3.878.002 3.877.002z"/></svg>