<svg xmlns="http://www.w3.org/2000/svg" viewBox="0 0 32.000001 32.000001" height="32" width="32"><path d="M28.37 14.313v3.374q0 .703-.49 1.195-.493.492-1.196.492h-7.31v7.31q0 .703-.492 1.195-.492.49-1.195.49h-3.374q-.703 0-1.195-.49-.492-.493-.492-1.196v-7.31h-7.31q-.703 0-1.195-.492-.49-.492-.49-1.195v-3.374q0-.703.49-1.195.493-.492 1.196-.492h7.31v-7.31q0-.703.492-1.195.492-.49 1.195-.49h3.374q.703 0 1.195.49.492.493.492 1.196v7.31h7.31q.703 0 1.195.492.49.492.49 1.195z" fill="#2a2a2b"/></svg>