<svg xmlns="http://www.w3.org/2000/svg" width="32" height="32" viewBox="0 0 32.000001 32.000001"><path style="-inkscape-font-specification:FontAwesome" d="M28.19 17.016c0-3.857-1.778-7.412-4.873-9.73-.89-.682-2.175-.507-2.84.397-.684.89-.493 2.175.395 2.84 2.064 1.557 3.254 3.922 3.254 6.493 0 4.475-3.65 8.126-8.126 8.126-4.476 0-8.126-3.65-8.126-8.126 0-2.57 1.19-4.936 3.254-6.492.888-.666 1.08-1.952.396-2.84-.666-.905-1.936-1.08-2.84-.397-3.096 2.317-4.873 5.872-4.873 9.73 0 6.712 5.476 12.188 12.19 12.188 6.714 0 12.19-5.476 12.19-12.19zM18.03 4.826c0-1.11-.92-2.03-2.032-2.03-1.11 0-2.032.92-2.032 2.03v10.158c0 1.11.92 2.032 2.032 2.032 1.11 0 2.032-.92 2.032-2.032V4.827z" font-family="FontAwesome" font-size="40" letter-spacing="0" word-spacing="0" fill="#2a2a2b"/></svg>