<?xml version="1.0" encoding="UTF-8" standalone="no"?>
<svg
   xmlns:dc="http://purl.org/dc/elements/1.1/"
   xmlns:cc="http://creativecommons.org/ns#"
   xmlns:rdf="http://www.w3.org/1999/02/22-rdf-syntax-ns#"
   xmlns:svg="http://www.w3.org/2000/svg"
   xmlns="http://www.w3.org/2000/svg"
   xmlns:xlink="http://www.w3.org/1999/xlink"
   xmlns:sodipodi="http://sodipodi.sourceforge.net/DTD/sodipodi-0.dtd"
   xmlns:inkscape="http://www.inkscape.org/namespaces/inkscape"
   width="100"
   height="40"
   version="1"
   id="svg59"
   sodipodi:docname="signs.svg"
   inkscape:version="0.92.2 2405546, 2018-03-11">
  <metadata
     id="metadata63">
    <rdf:RDF>
      <cc:Work
         rdf:about="">
        <dc:format>image/svg+xml</dc:format>
        <dc:type
           rdf:resource="http://purl.org/dc/dcmitype/StillImage" />
        <dc:title></dc:title>
      </cc:Work>
    </rdf:RDF>
  </metadata>
  <sodipodi:namedview
     pagecolor="#ffffff"
     bordercolor="#666666"
     borderopacity="1"
     objecttolerance="10"
     gridtolerance="10"
     guidetolerance="10"
     inkscape:pageopacity="0"
     inkscape:pageshadow="2"
     inkscape:window-width="1920"
     inkscape:window-height="1003"
     id="namedview61"
     showgrid="false"
     inkscape:zoom="9"
     inkscape:cx="18.490343"
     inkscape:cy="10.38556"
     inkscape:window-x="0"
     inkscape:window-y="37"
     inkscape:window-maximized="1"
     inkscape:current-layer="svg59" />
  <defs
     id="defs25">
    <linearGradient
       id="c">
      <stop
         offset="0"
         stop-color="#ffe680"
         id="stop2" />
      <stop
         offset=".396"
         stop-color="#fc0"
         id="stop4" />
      <stop
         offset="1"
         stop-color="#ffe784"
         id="stop6" />
    </linearGradient>
    <linearGradient
       id="b">
      <stop
         offset="0"
         stop-color="#b44"
         id="stop9" />
      <stop
         offset="1"
         stop-color="#cf6969"
         id="stop11" />
    </linearGradient>
    <linearGradient
       id="a">
      <stop
         offset="0"
         stop-color="#4b4"
         id="stop14" />
      <stop
         offset="1"
         stop-color="#68cc68"
         id="stop16" />
    </linearGradient>
    <filter
       id="e"
       x="-.36"
       width="1.72"
       y="-.36"
       height="1.72">
      <feGaussianBlur
         stdDeviation="2.464"
         id="feGaussianBlur19" />
    </filter>
    <linearGradient
       xlink:href="#b"
       id="d"
       gradientUnits="userSpaceOnUse"
       x1="131.75"
       y1="738.969"
       x2="111.821"
       y2="716.112" />
    <linearGradient
       xlink:href="#c"
       id="f"
       gradientUnits="userSpaceOnUse"
       x1="159.339"
       y1="727.359"
       x2="184.483"
       y2="749.895" />
    <linearGradient
       xlink:href="#a"
       id="g"
       gradientUnits="userSpaceOnUse"
       x1="131.75"
       y1="738.969"
       x2="111.821"
       y2="716.112" />
  </defs>
  <path
     d="M137.5 727.184a15.893 15.893 0 1 1-31.786 0 15.893 15.893 0 1 1 31.786 0z"
     transform="matrix(.9013 0 0 .9013 -27.603 -635.4)"
     fill="url(#d)"
     fill-rule="evenodd"
     stroke="#7b0000"
     stroke-width="1.664"
     id="path27"
     style="fill:#ffffff;stroke:#ef2f2f" />
  <path
     d="m 87.421889,11.645939 -5.436,5.437 -5.407,-5.408 -2.93,2.93 5.41,5.406 -5.41,5.436 2.93,2.93 5.408,-5.437 5.437,5.436 2.93,-2.928 -5.437,-5.436 5.436,-5.407 -2.93,-2.96 z"
     id="path33"
     inkscape:connector-curvature="0"
     style="fill:#ef2f2f" />
  <g
     id="g47">
    <path
       d="M164.894 717.36l18.84 31.785h-37.216l18.376-31.786z"
       id="path35"
       transform="matrix(.77002 0 0 .77002 -77.154 -544.615)"
       stroke-linejoin="round"
       stroke-linecap="square"
       stroke-width="1.948"
       stroke="#816907"
       fill="url(#f)"
       style="fill:#ffffff;stroke:#ef662f" />
    <g
       id="g872"
       transform="translate(-0.1654283)"
       style="fill:#ef662f">
      <path
         id="path41"
         d="m 48.684,14.685 0.02,10.337 2.937,-0.005 -0.02,-10.337 -2.936,0.005 z"
         inkscape:connector-curvature="0"
         style="fill:#ef662f;fill-rule:evenodd" />
      <path
         id="path45"
         d="m 51.815,28.82 a 1.653,1.653 0 1 1 -3.306,0 1.653,1.653 0 1 1 3.305,0 z"
         inkscape:connector-curvature="0"
         style="fill:#ef662f;fill-rule:evenodd" />
    </g>
  </g>
  <g
     id="g57">
    <path
       d="M137.5 727.184a15.893 15.893 0 1 1-31.786 0 15.893 15.893 0 1 1 31.786 0z"
       id="path49"
       style="fill:#ffffff;stroke:#29cf5c"
       transform="matrix(.9013 0 0 .9013 -91.603 -635.4)"
       stroke-width="1.664"
       stroke="#007d01"
       fill-rule="evenodd"
       fill="url(#g)" />
    <path
       d="m 9.7155427,20.565 7.6670003,5.993 8.347,-13.962"
       id="path53"
       inkscape:connector-curvature="0"
       style="opacity:1;fill:none;stroke:#29cf5c;stroke-width:4.6;stroke-opacity:1;stroke-miterlimit:4;stroke-dasharray:none" />
  </g>
</svg>
