<svg xmlns="http://www.w3.org/2000/svg" width="32" height="32" viewBox="0 0 32.000001 32.000001"><path d="M27.802 18.54q0 .08-.016.113-1.017 4.257-4.257 6.9-3.24 2.646-7.594 2.646-2.32 0-4.487-.875-2.17-.873-3.87-2.493l-2.048 2.05q-.3.3-.714.3-.413 0-.715-.3-.302-.303-.302-.716V19.05q0-.413.303-.715.302-.302.715-.302h7.116q.413 0 .714.302.302.302.302.715t-.302.715l-2.176 2.176q1.128 1.05 2.558 1.62 1.43.573 2.97.573 2.128 0 3.97-1.033 1.844-1.032 2.955-2.843.175-.27.842-1.858.127-.367.477-.367h3.05q.206 0 .357.15.152.152.152.358zM28.2 5.835v7.116q0 .413-.303.715-.302.302-.715.302h-7.116q-.413 0-.714-.302-.302-.302-.302-.715t.302-.715l2.192-2.192Q19.194 7.867 16 7.867q-2.128 0-3.97 1.033-1.844 1.032-2.955 2.843-.175.27-.842 1.858-.127.367-.477.367h-3.16q-.207 0-.358-.15-.15-.152-.15-.358v-.113q1.03-4.257 4.288-6.9Q11.632 3.8 16 3.8q2.32 0 4.51.883 2.193.88 3.893 2.485l2.065-2.05q.3-.3.714-.3.413 0 .715.3.302.303.302.716z" fill="#2a2a2b"/></svg>