<?xml version="1.0" encoding="UTF-8" standalone="no"?>
<!-- Generated by IcoMoon.io -->

<svg
   xmlns:dc="http://purl.org/dc/elements/1.1/"
   xmlns:cc="http://creativecommons.org/ns#"
   xmlns:rdf="http://www.w3.org/1999/02/22-rdf-syntax-ns#"
   xmlns:svg="http://www.w3.org/2000/svg"
   xmlns="http://www.w3.org/2000/svg"
   xmlns:sodipodi="http://sodipodi.sourceforge.net/DTD/sodipodi-0.dtd"
   xmlns:inkscape="http://www.inkscape.org/namespaces/inkscape"
   version="1.1"
   width="64"
   height="64"
   viewBox="0 0 64 64"
   id="svg6"
   sodipodi:docname="weather.svg"
   inkscape:version="0.92.2 2405546, 2018-03-11"
   inkscape:export-filename="/srv/maple/images/new/SVG/measure.svg.png"
   inkscape:export-xdpi="96"
   inkscape:export-ydpi="96">
  <metadata
     id="metadata12">
    <rdf:RDF>
      <cc:Work
         rdf:about="">
        <dc:format>image/svg+xml</dc:format>
        <dc:type
           rdf:resource="http://purl.org/dc/dcmitype/StillImage" />
        <dc:title>stack</dc:title>
      </cc:Work>
    </rdf:RDF>
  </metadata>
  <defs
     id="defs10" />
  <sodipodi:namedview
     pagecolor="#ffffff"
     bordercolor="#666666"
     borderopacity="1"
     objecttolerance="10"
     gridtolerance="10"
     guidetolerance="10"
     inkscape:pageopacity="0"
     inkscape:pageshadow="2"
     inkscape:window-width="1920"
     inkscape:window-height="1003"
     id="namedview8"
     showgrid="true"
     inkscape:measure-start="2.68461,48.8503"
     inkscape:measure-end="8.77292,48.8024"
     inkscape:zoom="1.3037282"
     inkscape:cx="-207.74165"
     inkscape:cy="89.226782"
     inkscape:window-x="0"
     inkscape:window-y="37"
     inkscape:window-maximized="1"
     inkscape:current-layer="g4830"
     inkscape:snap-global="false">
    <inkscape:grid
       type="xygrid"
       id="grid834"
       spacingx="4"
       spacingy="4" />
  </sodipodi:namedview>
  <title
     id="title2">stack</title>
  <g
     id="g4538"
     transform="translate(-2.1328826,-2.0378473)">
    <g
       id="g4544"
       transform="translate(0.76703143,1.0067283)">
      <g
         id="g4541">
        <g
           id="g4830"
           transform="matrix(0.50501804,0,0,0.50501804,25.821453,9.8514618)">
          <path
             inkscape:connector-curvature="0"
             id="path4818"
             d="m 8.7539002,104.46398 c -5.83719,-3.17246 -6.13601,-11.716115 -0.55603,-15.897814 3.4396898,-2.57773 9.8342808,-5.93355 13.4179808,-7.04163 2.196982,-0.6793 2.25,-0.51662 2.25,6.90381 0,9.100489 -1.739814,13.832254 -5.871562,15.968864 -3.689609,1.90797 -5.824269,1.9234 -9.2403888,0.0668 z"
             style="fill:#67a9cf" />
          <path
             inkscape:connector-curvature="0"
             id="path4816"
             d="m -25.63415,89.755796 c -3.19,-1.82946 -4.4341,-4.03113 -4.4682,-7.90732 -0.0444,-5.04654 2.76907,-8.146049 11.24816,-12.391761 l 7.22004,-3.615275 0.29348,8.249015 c 0.17001,4.778591 -0.20478,9.451911 -0.89085,11.108241 -2.00621,4.843409 -8.8474,7.169529 -13.40263,4.5571 z"
             style="fill:#67a9cf" />
          <path
             inkscape:connector-curvature="0"
             id="path4814"
             d="m 41.511874,83.511366 c -1.992735,-1.84681 -2.646023,-3.41832 -2.646023,-6.36514 0,-5.413483 2.756065,-8.49195 11.311106,-12.63427 l 7.188894,-3.480837 0.2965,7.712894 c 0.3647,9.486733 -0.16246,11.727493 -3.482966,14.804833 -3.550914,3.29088 -9.093851,3.27448 -12.667511,-0.0375 z"
             style="fill:#67a9cf" />
          <path
             style="stroke-width:1.95314193;fill:#2992cf"
             id="path4"
             d="m 77.439412,34.972855 c 0,-10.021571 -6.918028,-18.420082 -16.234516,-20.689632 -0.396487,-15.7110742 -13.240348,-28.328372 -29.035407,-28.328372 -9.252033,0 -17.488433,4.3320691 -22.808792,11.076268 -2.9844019,-3.8574543 -7.6524103,-6.3418519 -12.9044095,-6.3418519 -9.0098445,0 -16.3145955,7.3086576 -16.3145955,16.3243602 0,0.7851639 0.05858,1.5566557 0.166018,2.3144741 -1.369153,-0.2480488 -2.779321,-0.3828156 -4.220741,-0.3828156 -13.060659,0 -23.648642,10.5938422 -23.648642,23.6623142 0,13.068474 10.587983,23.662315 23.648642,23.662315 l 80.110072,-0.002 c 11.73643,-0.02148 21.242371,-9.546959 21.242371,-21.295106 z"
             inkscape:connector-curvature="0" />
        </g>
      </g>
    </g>
  </g>
</svg>
