<?xml version="1.0" encoding="UTF-8" standalone="no"?>
<!-- Generated by IcoMoon.io -->

<svg
   xmlns:dc="http://purl.org/dc/elements/1.1/"
   xmlns:cc="http://creativecommons.org/ns#"
   xmlns:rdf="http://www.w3.org/1999/02/22-rdf-syntax-ns#"
   xmlns:svg="http://www.w3.org/2000/svg"
   xmlns="http://www.w3.org/2000/svg"
   xmlns:sodipodi="http://sodipodi.sourceforge.net/DTD/sodipodi-0.dtd"
   xmlns:inkscape="http://www.inkscape.org/namespaces/inkscape"
   version="1.1"
   width="384"
   height="448"
   viewBox="0 0 384 448"
   id="svg2"
   inkscape:version="0.91 r13725"
   sodipodi:docname="caret-square-o-down.svg">
  <metadata
     id="metadata11">
    <rdf:RDF>
      <cc:Work
         rdf:about="">
        <dc:format>image/svg+xml</dc:format>
        <dc:type
           rdf:resource="http://purl.org/dc/dcmitype/StillImage" />
      </cc:Work>
    </rdf:RDF>
  </metadata>
  <defs
     id="defs9" />
  <sodipodi:namedview
     pagecolor="#ffffff"
     bordercolor="#666666"
     borderopacity="1"
     objecttolerance="10"
     gridtolerance="10"
     guidetolerance="10"
     inkscape:pageopacity="0"
     inkscape:pageshadow="2"
     inkscape:window-width="1366"
     inkscape:window-height="705"
     id="namedview7"
     showgrid="false"
     inkscape:zoom="0.093123438"
     inkscape:cx="-2526.0879"
     inkscape:cy="1026.8319"
     inkscape:window-x="1272"
     inkscape:window-y="-8"
     inkscape:window-maximized="1"
     inkscape:current-layer="svg2" />
  <g
     id="icomoon-ignore" />
  <path
     d="m 286.25,168.75 c 3,5.83333 2.58333,11.33333 -1.25,16.5 l -80,112 c -3.16667,4.5 -7.5,6.75 -13,6.75 -5.5,0 -9.83333,-2.25 -13,-6.75 l -80,-112 c -3.833333,-5.16667 -4.25,-10.66667 -1.25,-16.5 2.83333,-5.83333 7.58333,-8.75 14.25,-8.75 l 160,0 c 6.66667,0 11.41667,2.91667 14.25,8.75 z M 340,364 340,84 c 0,-2.166667 -0.79167,-4.041667 -2.375,-5.625 C 336.04167,76.791667 334.16667,76 332,76 L 52,76 c -2.166667,0 -4.041667,0.791667 -5.625,2.375 C 44.791667,79.958333 44,81.833333 44,84 l 0,280 c 0,2.16667 0.791667,4.04167 2.375,5.625 C 47.958333,371.20833 49.833333,372 52,372 l 280,0 c 2.16667,0 4.04167,-0.79167 5.625,-2.375 C 339.20833,368.04167 340,366.16667 340,364 Z m 44,-260 0,240 c 0,19.83333 -7.04167,36.79167 -21.125,50.875 C 348.79167,408.95833 331.83333,416 312,416 L 72,416 C 52.166667,416 35.208333,408.95833 21.125,394.875 7.0416667,380.79167 0,363.83333 0,344 L 0,104 C 0,84.166667 7.0416667,67.208333 21.125,53.125 35.208333,39.041667 52.166667,32 72,32 l 240,0 c 19.83333,0 36.79167,7.041667 50.875,21.125 C 376.95833,67.208333 384,84.166667 384,104 Z"
     id="path5"
     inkscape:connector-curvature="0"
     sodipodi:nodetypes="cccscccsscssssssssssssssssssssssssss" />
</svg>
