<?xml version="1.0" encoding="UTF-8" standalone="no"?>
<!-- Generated by IcoMoon.io -->

<svg
   xmlns:dc="http://purl.org/dc/elements/1.1/"
   xmlns:cc="http://creativecommons.org/ns#"
   xmlns:rdf="http://www.w3.org/1999/02/22-rdf-syntax-ns#"
   xmlns:svg="http://www.w3.org/2000/svg"
   xmlns="http://www.w3.org/2000/svg"
   xmlns:sodipodi="http://sodipodi.sourceforge.net/DTD/sodipodi-0.dtd"
   xmlns:inkscape="http://www.inkscape.org/namespaces/inkscape"
   version="1.1"
   width="512"
   height="512"
   viewBox="0 0 512 512"
   id="svg2"
   inkscape:version="0.91 r13725"
   sodipodi:docname="checkbox-checked.svg">
  <metadata
     id="metadata11">
    <rdf:RDF>
      <cc:Work
         rdf:about="">
        <dc:format>image/svg+xml</dc:format>
        <dc:type
           rdf:resource="http://purl.org/dc/dcmitype/StillImage" />
        <dc:title />
      </cc:Work>
    </rdf:RDF>
  </metadata>
  <defs
     id="defs9" />
  <sodipodi:namedview
     pagecolor="#ffffff"
     bordercolor="#666666"
     borderopacity="1"
     objecttolerance="10"
     gridtolerance="10"
     guidetolerance="10"
     inkscape:pageopacity="0"
     inkscape:pageshadow="2"
     inkscape:window-width="1366"
     inkscape:window-height="705"
     id="namedview7"
     showgrid="false"
     inkscape:zoom="0.057617188"
     inkscape:cx="-3429.0928"
     inkscape:cy="-340.71851"
     inkscape:window-x="1272"
     inkscape:window-y="-8"
     inkscape:window-maximized="1"
     inkscape:current-layer="svg2" />
  <g
     id="icomoon-ignore" />
  <path
     d="M 448,0 64,0 C 28.8,0 0,28.8 0,64 l 0,384 c 0,35.2 28.8,64 64,64 l 384,0 c 35.2,0 64,-28.8 64,-64 L 512,64 C 512,28.8 483.2,0 448,0 Z m 20,468 -424,0 0,-424 424,0 z"
     id="path5"
     inkscape:connector-curvature="0"
     sodipodi:nodetypes="sssssssssccccc" />
  <path
     style="fill:#000000;fill-opacity:1;fill-rule:evenodd;stroke:none;stroke-width:17.35593224;stroke-linecap:round;stroke-linejoin:round;stroke-miterlimit:4;stroke-dasharray:none;stroke-dashoffset:0.25;stroke-opacity:1"
     d="m 147.58291,323.30609 -63.74377,-63.77657 23.85379,-23.76428 23.85379,-23.76429 40.50914,40.45656 40.50914,40.45656 84.02357,-83.99854 84.02356,-83.99856 23.77434,23.8639 23.77439,23.86391 -107.19911,107.21894 c -58.9595,58.97042 -107.74719,107.21895 -108.41709,107.21895 -0.66988,0 -29.90269,-28.69947 -64.96175,-63.77658 z"
     id="path4139"
     inkscape:connector-curvature="0" />
</svg>
